<?xml version="1.0" standalone="no"?>
<!DOCTYPE svg PUBLIC "-//W3C//DTD SVG 20010904//EN"
 "http://www.w3.org/TR/2001/REC-SVG-20010904/DTD/svg10.dtd">
<svg version="1.0" xmlns="http://www.w3.org/2000/svg"
 width="362.000000pt" height="362.000000pt" viewBox="0 0 362.000000 362.000000"
 preserveAspectRatio="xMidYMid meet">

<g transform="translate(0.000000,362.000000) scale(0.100000,-0.100000)"
fill="#000000" stroke="none">
<path d="M1645 3614 c-314 -45 -509 -107 -727 -230 -268 -151 -531 -413 -682
-678 -276 -487 -310 -1091 -90 -1605 137 -320 375 -606 668 -802 339 -226 778
-333 1184 -288 657 72 1218 488 1478 1097 169 396 188 851 53 1267 -42 128
-167 373 -246 484 -279 389 -696 650 -1178 736 -86 16 -395 28 -460 19z m417
-39 c587 -88 1081 -446 1343 -973 136 -275 191 -529 182 -842 -7 -244 -40
-404 -128 -623 -83 -209 -205 -393 -373 -566 -207 -211 -424 -351 -691 -444
-223 -77 -399 -102 -654 -94 -195 7 -304 25 -483 83 -526 170 -947 581 -1130
1103 -69 197 -98 376 -98 596 1 392 119 750 353 1060 297 397 736 649 1232
708 84 11 359 5 447 -8z"/>
<path d="M1854 3375 c-10 -25 7 -40 22 -20 8 10 16 16 20 13 8 -9 -7 -98 -17
-98 -5 0 -9 -4 -9 -10 0 -5 16 -10 36 -10 30 0 34 3 25 14 -7 8 -9 31 -4 61 5
41 8 45 18 31 16 -21 25 -20 25 3 0 30 -105 45 -116 16z"/>
<path d="M1607 3370 c8 -9 7 -23 -4 -59 -9 -25 -20 -52 -26 -58 -7 -10 -2 -13
22 -13 31 0 42 14 19 23 -10 4 -9 8 2 16 25 18 43 13 37 -9 -4 -17 0 -20 23
-20 16 0 32 5 35 10 3 6 2 10 -4 10 -5 0 -22 24 -38 53 -21 38 -35 53 -53 55
-19 3 -22 1 -13 -8z m29 -67 c-10 -10 -19 5 -10 18 6 11 8 11 12 0 2 -7 1 -15
-2 -18z"/>
<path d="M2137 3339 c13 -13 -1 -75 -23 -100 -13 -15 -12 -18 16 -27 29 -10
30 -10 24 12 -7 28 8 40 36 31 25 -8 26 -31 3 -44 -21 -11 -17 -16 21 -25 22
-6 27 -4 23 7 -8 20 16 97 33 107 15 9 15 9 -35 25 -8 2 -17 0 -20 -5 -4 -6
-1 -10 4 -10 13 0 14 -10 2 -29 -11 -16 -51 -6 -51 14 0 8 8 18 18 24 15 8 14
11 -11 20 -38 15 -54 14 -40 0z"/>
<path d="M1340 3324 c-8 -3 -22 -8 -30 -10 -11 -4 -11 -7 -2 -13 19 -12 42
-97 29 -110 -14 -14 2 -15 39 -1 26 10 26 11 8 25 -18 14 -18 15 9 37 40 32
35 72 -8 75 -16 1 -37 0 -45 -3z m50 -33 c0 -25 -20 -38 -31 -20 -15 23 -10
39 11 39 13 0 20 -7 20 -19z"/>
<path d="M2430 3217 c0 -18 -5 -50 -10 -71 -12 -56 -3 -63 35 -26 l33 32 -8
-41 c-4 -22 -5 -43 -2 -45 2 -3 26 13 51 34 26 22 53 40 59 40 19 0 14 18 -7
30 -27 14 -34 13 -28 -4 5 -12 -20 -46 -34 -46 -3 0 -3 18 -1 40 5 47 -2 49
-39 14 l-27 -26 5 45 c4 34 2 45 -11 50 -13 5 -16 0 -16 -26z"/>
<path d="M893 3097 c-34 -23 -42 -37 -20 -37 14 0 57 -63 57 -85 0 -23 15 -18
54 19 41 38 47 75 16 106 -26 26 -66 25 -107 -3z m77 -17 c23 -23 26 -53 6
-69 -12 -10 -20 -5 -41 28 -27 40 -27 61 1 61 8 0 23 -9 34 -20z"/>
<path d="M1655 3039 c-297 -38 -586 -193 -781 -418 -72 -84 -179 -249 -168
-260 4 -3 11 3 18 13 106 177 213 303 340 400 367 281 857 334 1271 136 231
-111 401 -273 561 -536 7 -11 14 -16 18 -13 9 9 -97 174 -157 244 -276 324
-689 486 -1102 434z"/>
<path d="M2748 3022 c-4 -12 -24 -26 -54 -37 -61 -23 -59 -22 -44 -40 16 -20
30 -19 30 1 0 11 5 14 16 10 9 -3 18 -6 20 -6 10 0 3 -29 -8 -33 -9 -3 -8 -10
6 -26 23 -25 36 -27 36 -4 0 9 8 40 17 70 15 48 15 55 1 69 -14 14 -16 14 -20
-4z m-8 -52 c0 -5 -4 -10 -10 -10 -5 0 -10 5 -10 10 0 6 5 10 10 10 6 0 10 -4
10 -10z"/>
<path d="M692 2917 c-35 -36 -39 -47 -19 -47 17 0 77 -62 77 -80 1 -9 16 2 36
25 35 40 40 65 15 73 -10 3 -12 -1 -9 -16 8 -29 -15 -48 -32 -27 -10 12 -10
18 0 30 10 12 10 15 -3 15 -8 0 -17 -6 -20 -12 -3 -10 -7 -10 -20 1 -13 10
-14 17 -6 27 6 7 16 11 24 8 21 -8 27 14 7 25 -15 8 -25 4 -50 -22z"/>
<path d="M2927 2832 c-7 -37 -46 -85 -63 -78 -18 7 -18 1 2 -29 14 -22 42 -27
29 -5 -9 14 31 31 75 33 44 1 46 4 26 30 -16 21 -26 22 -26 2 0 -8 -6 -15 -14
-15 -11 0 -13 10 -9 39 6 44 -12 65 -20 23z"/>
<path d="M535 2720 c-5 -14 2 -32 20 -55 l26 -35 -48 0 c-46 0 -73 -12 -73
-33 0 -5 7 -6 15 -3 18 7 95 -38 95 -55 0 -8 5 -7 15 1 18 15 20 41 2 34 -7
-2 -21 3 -32 11 -19 15 -17 16 23 10 47 -8 52 0 22 38 -11 14 -20 28 -20 31 0
3 9 1 20 -6 11 -7 20 -18 20 -25 0 -20 18 -15 30 6 13 25 13 44 0 36 -13 -8
-90 37 -90 53 0 20 -18 14 -25 -8z"/>
<path d="M1718 2560 c-25 -26 -29 -36 -24 -62 3 -18 15 -42 26 -53 15 -16 20
-35 20 -78 l0 -57 -37 15 c-59 25 -73 42 -73 94 0 55 -27 104 -69 126 -44 22
-70 19 -152 -18 -158 -72 -260 -96 -436 -100 -68 -2 -126 -7 -130 -11 -13 -13
33 -42 96 -62 45 -14 61 -24 63 -39 2 -15 16 -23 56 -33 29 -7 62 -22 72 -32
20 -20 48 -25 104 -21 19 2 33 -4 43 -18 11 -16 25 -21 58 -21 24 0 45 -5 47
-11 2 -6 28 -14 57 -17 l52 -5 -26 -27 c-54 -56 -15 -123 87 -151 l39 -10 -26
-30 c-44 -54 -24 -111 54 -155 l49 -28 -24 -23 c-16 -15 -24 -33 -24 -57 0
-36 24 -63 89 -98 l33 -18 -21 -26 c-27 -35 -28 -91 -1 -119 20 -21 20 -23 3
-54 -17 -29 -17 -33 -2 -60 9 -16 15 -39 12 -53 -3 -15 3 -30 16 -42 12 -11
21 -28 21 -38 0 -29 26 -32 52 -6 28 28 33 94 10 121 -13 15 -13 17 0 17 39 0
75 79 47 107 -8 8 -8 17 0 31 14 26 14 89 1 97 -21 13 -9 33 31 51 47 21 79
65 72 97 -3 12 -17 34 -30 48 l-25 27 49 27 c50 26 83 67 83 102 0 10 -8 32
-19 49 l-18 30 46 17 c25 9 56 26 69 37 28 27 29 78 2 108 -27 29 -26 32 19
32 23 0 46 7 56 16 9 9 24 14 36 11 24 -6 70 8 80 25 4 6 33 12 65 13 43 1 61
6 73 21 9 11 38 24 66 29 39 8 53 16 62 36 9 17 24 29 44 33 47 9 119 47 119
63 0 10 -21 13 -83 13 -178 0 -295 24 -464 96 -57 24 -114 44 -127 44 -13 0
-42 -16 -65 -37 -35 -32 -43 -46 -47 -83 -9 -82 -12 -87 -57 -109 -63 -31 -67
-29 -67 37 0 48 4 61 25 81 34 31 34 83 0 116 -19 20 -34 25 -75 25 -44 0 -56
-4 -82 -30z m30 -483 c3 -72 1 -78 -15 -74 -10 3 -49 8 -88 12 -80 8 -121 25
-130 56 -12 37 16 52 102 56 55 2 81 8 88 18 6 9 17 14 25 13 12 -3 16 -21 18
-81z m147 67 c9 -12 33 -18 91 -22 84 -5 104 -13 104 -42 0 -30 -45 -57 -107
-64 -32 -4 -77 -9 -100 -13 l-43 -5 0 70 c0 57 3 73 18 81 23 14 23 14 37 -5z
m-143 -261 c2 -38 3 -69 2 -71 -4 -7 -134 63 -134 73 0 23 20 38 66 51 27 7
52 13 56 13 3 1 8 -29 10 -66z m198 44 c38 -18 37 -49 -4 -85 -33 -28 -100
-52 -112 -39 -3 3 -2 37 2 77 l7 72 40 -6 c23 -4 53 -12 67 -19z m-190 -258
c0 -56 -11 -60 -44 -16 -19 26 -19 27 -1 47 31 35 45 25 45 -31z m115 25 c20
-8 36 -16 33 -17 -2 -1 -20 -18 -41 -36 l-37 -35 0 52 c0 29 2 52 4 52 2 0 20
-7 41 -16z"/>
<path d="M615 2324 l-110 -14 -87 -87 c-49 -48 -88 -92 -88 -96 0 -5 24 -6 53
-3 l52 6 24 -55 c18 -43 22 -64 17 -100 -16 -102 48 -213 145 -255 53 -22 117
-24 204 -5 l30 7 -30 -26 c-18 -16 -38 -24 -50 -21 -11 2 -27 0 -35 -5 -12 -8
-10 -14 12 -37 15 -15 32 -41 38 -57 9 -23 13 -26 25 -16 8 7 15 21 15 31 0
14 47 59 62 59 3 0 13 -27 23 -60 10 -33 21 -60 25 -60 23 0 34 37 31 102 l-3
69 41 36 c44 37 50 53 25 74 -13 11 -23 9 -66 -15 -27 -15 -51 -26 -54 -23 -2
2 8 28 23 58 76 146 -13 323 -179 354 -27 5 -39 14 -51 40 -15 32 -15 33 13
60 l28 27 20 -37 c10 -21 22 -34 25 -29 8 14 -36 89 -53 90 -8 1 -64 -4 -125
-12z m31 -83 l-78 -78 -96 -11 c-53 -6 -98 -9 -100 -7 -3 3 26 37 65 76 l69
71 94 13 c52 7 102 13 110 14 8 0 -21 -34 -64 -78z m59 -50 c24 -48 24 -49 6
-73 -25 -31 -119 -78 -170 -85 -39 -5 -40 -5 -65 45 l-26 51 38 6 c20 3 51 8
67 11 20 2 48 21 75 49 24 25 45 45 47 45 1 0 14 -22 28 -49z m153 -68 c39
-29 40 -36 7 -51 -23 -10 -26 -9 -41 21 -9 17 -24 40 -33 51 -15 18 -15 18 9
11 14 -4 40 -18 58 -32z m-81 5 c29 -33 46 -69 36 -78 -4 -4 -25 -11 -45 -14
l-38 -7 0 38 c0 44 9 83 19 83 4 0 17 -10 28 -22z m-70 -94 c-2 -2 -18 -1 -36
2 l-32 7 33 22 33 23 3 -25 c2 -14 2 -27 -1 -29z m221 4 c6 -14 15 -40 18 -57
l7 -31 -46 0 -45 0 -7 46 c-3 25 -5 47 -3 48 14 12 45 25 53 22 6 -1 16 -14
23 -28z m-245 -18 c24 0 27 -4 27 -35 l0 -35 -55 0 c-59 0 -63 5 -48 58 4 18
11 22 27 18 11 -3 33 -6 49 -6z m151 -6 c3 -9 6 -27 6 -40 0 -22 -3 -24 -55
-24 l-55 0 0 34 c0 33 2 35 38 39 20 2 42 4 48 5 7 1 15 -5 18 -14z m-248 -16
c-3 -13 -6 -29 -6 -35 0 -9 -16 -13 -46 -13 -43 0 -46 2 -40 23 3 12 6 25 6
29 0 6 30 13 74 17 14 1 17 -4 12 -21z m-2 -90 c11 -43 6 -66 -19 -82 -14 -9
-30 -14 -34 -11 -9 5 -41 90 -41 107 0 4 20 8 44 8 37 0 45 -4 50 -22z m126
-6 c0 -25 -5 -29 -47 -39 -27 -6 -49 -10 -51 -8 -2 1 -6 19 -9 39 l-6 36 57 0
c55 0 56 -1 56 -28z m130 11 c0 -10 -3 -27 -6 -39 -5 -19 -9 -20 -55 -10 -45
9 -49 12 -49 38 0 27 1 28 55 28 46 0 55 -3 55 -17z m105 -15 c-9 -39 -33 -88
-43 -88 -4 0 -18 9 -31 19 -20 16 -22 23 -16 59 7 42 7 42 52 42 l45 0 -7 -32z
m-235 -113 l0 -65 -24 15 c-27 18 -49 48 -60 82 -7 22 4 28 62 32 21 1 22 -3
22 -64z m79 59 c32 -7 39 -32 7 -26 -10 2 -24 -2 -32 -9 -13 -10 -12 -14 2
-30 18 -20 13 -33 -17 -49 -18 -10 -19 -7 -19 55 0 70 0 70 59 59z m-173 -46
c9 -18 26 -43 37 -55 11 -13 17 -23 13 -23 -14 0 -71 33 -94 53 l-23 21 23 18
c13 10 24 18 25 18 1 0 10 -15 19 -32z m260 7 c16 -12 17 -14 2 -15 -23 0 -48
11 -48 21 0 14 24 11 46 -6z m-17 -30 l63 -26 43 26 c76 44 91 24 24 -33 l-41
-35 7 -74 c4 -42 3 -73 -2 -73 -5 0 -17 25 -27 55 -9 30 -21 55 -27 55 -5 0
-27 -11 -49 -25 -27 -17 -40 -33 -41 -48 0 -21 -1 -21 -10 3 -5 14 -20 33 -32
43 l-22 19 27 -6 c22 -5 35 1 65 28 l38 35 -23 16 c-42 31 -77 64 -66 65 6 0
39 -11 73 -25z m-49 -34 c0 -5 -7 -11 -15 -15 -15 -5 -20 5 -8 17 9 10 23 9
23 -2z"/>
<path d="M2895 2290 c-55 -12 -329 -153 -333 -171 -2 -11 17 -18 75 -28 42 -7
88 -17 102 -23 23 -8 24 -10 9 -19 -21 -12 -25 -69 -5 -69 8 0 7 -3 -3 -9 -8
-6 -18 -7 -22 -5 -4 3 -8 -22 -8 -55 0 -53 3 -62 27 -81 25 -19 28 -28 28 -88
1 -62 3 -67 24 -70 24 -4 24 -3 17 62 -7 73 -7 73 59 55 35 -10 37 -13 22 -24
-56 -41 24 -147 128 -169 28 -6 36 -1 90 60 59 67 59 67 66 40 8 -30 27 -56
39 -56 5 0 3 13 -3 29 -8 22 -8 36 0 54 l11 24 58 -19 c59 -20 84 -18 84 5 0
23 -25 38 -77 45 l-47 7 87 55 c80 51 86 58 87 88 0 66 -48 122 -105 122 -23
0 -40 -11 -73 -47 -26 -29 -45 -43 -48 -36 -4 8 -13 9 -30 3 -21 -8 -24 -7
-24 14 0 14 -3 31 -6 40 -3 9 -1 16 5 16 6 0 11 -9 11 -19 0 -23 29 -36 44
-21 8 8 7 10 -5 5 -10 -4 -16 0 -16 9 0 8 4 13 9 10 4 -3 8 6 8 20 0 14 -5 26
-12 26 -6 0 9 14 34 30 26 17 66 48 90 69 l43 39 -60 17 c-33 10 -91 28 -130
40 -80 27 -192 38 -250 25z m137 -20 c36 -5 101 -21 144 -35 42 -14 86 -25 99
-25 12 0 25 -3 29 -7 10 -10 -81 -66 -217 -134 -118 -58 -119 -59 -150 -42
-18 9 -57 24 -87 33 l-54 18 66 31 c37 17 71 31 76 31 4 0 17 7 28 16 18 15
17 15 -15 10 -38 -7 -148 -53 -171 -72 -15 -12 -20 -12 -169 22 -23 5 -24 5
-4 19 11 8 43 23 72 35 28 11 83 38 121 59 61 35 87 43 150 49 8 1 45 -3 82
-8z m-93 -261 c11 -7 1 -8 -34 -5 -71 8 -75 8 -70 17 3 4 -9 12 -25 18 -17 5
-30 12 -30 15 0 7 140 -33 159 -45z m171 32 c0 -9 -41 -23 -49 -16 -3 4 28 20
47 24 1 1 2 -3 2 -8z m244 -30 c18 -16 46 -70 46 -90 0 -6 -19 -20 -42 -32
-24 -12 -58 -33 -77 -47 -36 -28 -38 -27 -69 24 -4 6 -20 18 -35 26 l-28 14
45 32 c24 18 54 48 66 67 18 30 26 34 48 29 15 -4 35 -14 46 -23z m-188 -141
c16 0 54 -35 54 -50 0 -8 -25 5 -86 48 -18 12 -18 13 -1 7 10 -3 25 -5 33 -5z
m-6 -39 c25 -15 45 -34 45 -42 0 -8 -32 -43 -71 -76 l-71 -62 -24 37 c-18 28
-37 41 -73 53 l-50 17 42 21 c23 12 63 35 89 51 26 17 52 30 57 29 6 0 31 -13
56 -28z m185 -92 c7 -9 -2 -10 -34 -5 -66 10 -89 29 -26 22 27 -4 54 -11 60
-17z m-422 -16 c3 -5 1 -17 -3 -28 -7 -19 -7 -19 -18 2 -7 12 -12 24 -12 27 0
9 28 7 33 -1z m61 -33 c18 -6 26 -6 26 1 0 6 5 7 11 3 8 -5 6 -10 -5 -16 -9
-5 -16 -16 -16 -24 0 -12 -7 -10 -29 8 -45 35 -39 48 13 28z m64 -42 c-3 -7
-13 -15 -24 -17 -16 -3 -17 -1 -5 13 16 19 34 21 29 4z"/>
<path d="M881 2218 c0 -7 9 -31 20 -53 l19 -40 -5 35 -5 34 39 -38 c61 -59 85
-124 84 -223 0 -45 4 -80 8 -77 5 3 9 39 9 79 0 90 -23 157 -75 221 l-36 44
28 0 c39 1 11 15 -44 24 -32 5 -43 3 -42 -6z"/>
<path d="M400 2034 c-20 -59 -8 -180 22 -239 31 -60 103 -129 161 -155 50 -22
147 -37 147 -23 0 6 -23 13 -51 16 -104 13 -193 76 -238 170 -37 78 -46 145
-28 215 16 59 5 72 -13 16z"/>
<path d="M660 1523 c0 -24 101 -202 155 -274 188 -251 449 -417 756 -479 125
-26 324 -28 454 -5 329 58 632 257 815 536 62 95 125 218 115 227 -7 8 -8 7
-58 -93 -206 -411 -617 -666 -1077 -668 -263 -2 -474 62 -700 211 -163 108
-353 333 -420 496 -12 31 -26 56 -31 56 -5 0 -9 -3 -9 -7z"/>
<path d="M725 580 c0 -25 4 -30 20 -28 28 4 28 52 0 56 -16 2 -20 -3 -20 -28z
m35 -4 c0 -3 -4 -8 -10 -11 -5 -3 -10 -1 -10 4 0 6 5 11 10 11 6 0 10 -2 10
-4z"/>
<path d="M840 580 c0 -23 4 -30 20 -30 11 0 20 5 20 11 0 5 -4 7 -10 4 -5 -3
-10 -2 -10 4 0 5 5 13 10 16 17 10 11 25 -10 25 -16 0 -20 -7 -20 -30z"/>
<path d="M954 595 c-9 -23 3 -45 25 -45 10 0 21 7 25 15 3 9 0 15 -10 15 -8 0
-12 -4 -9 -10 3 -5 2 -10 -3 -10 -14 0 -23 28 -12 35 6 4 15 3 20 0 6 -3 10
-1 10 4 0 17 -40 13 -46 -4z"/>
<path d="M1075 580 c0 -16 5 -30 10 -30 6 0 10 14 10 30 0 17 -4 30 -10 30 -5
0 -10 -13 -10 -30z"/>
<path d="M1171 578 c0 -26 2 -29 8 -14 5 14 10 16 15 8 12 -20 26 -13 26 13 0
14 -4 25 -10 25 -5 0 -7 -8 -4 -17 5 -17 5 -17 -9 0 -21 25 -27 21 -26 -15z"/>
<path d="M1375 580 c0 -16 3 -30 8 -30 6 0 9 16 6 36 0 4 5 11 13 15 10 6 8 9
-7 9 -16 0 -20 -7 -20 -30z"/>
<path d="M1482 583 c2 -20 9 -28 23 -28 14 0 21 8 23 28 2 15 -1 27 -6 27 -6
0 -8 -8 -5 -19 3 -10 0 -22 -6 -25 -7 -5 -11 3 -11 18 0 14 -5 26 -11 26 -6 0
-9 -12 -7 -27z"/>
<path d="M1609 601 c8 -5 12 -18 8 -30 -3 -12 -1 -21 4 -21 5 0 9 12 9 26 0
14 4 23 10 19 6 -3 10 -1 10 4 0 6 -12 11 -27 11 -20 0 -24 -3 -14 -9z"/>
<path d="M1720 585 c0 -29 28 -45 41 -24 11 18 12 49 1 49 -5 0 -8 -9 -8 -20
1 -10 -3 -19 -9 -19 -5 0 -10 9 -9 19 0 11 -3 20 -8 20 -4 0 -8 -11 -8 -25z"/>
<path d="M1840 581 c0 -17 5 -31 10 -31 6 0 10 5 10 11 0 8 4 8 14 0 12 -10
14 -8 12 16 -2 20 -9 29 -25 31 -18 3 -21 -2 -21 -27z"/>
<path d="M1960 580 c0 -23 5 -30 19 -30 11 0 23 5 27 12 5 8 2 9 -10 5 -12 -5
-16 -2 -14 11 2 9 8 20 13 24 6 4 0 8 -12 8 -19 0 -23 -6 -23 -30z"/>
<path d="M2162 578 c10 -27 12 -29 18 -13 6 18 7 18 16 2 8 -14 11 -13 21 13
6 17 7 30 2 30 -5 0 -9 -6 -9 -12 0 -9 -4 -8 -10 2 -9 13 -11 13 -20 0 -6 -10
-10 -11 -10 -2 0 6 -4 12 -9 12 -6 0 -5 -13 1 -32z"/>
<path d="M2300 580 c0 -16 3 -30 8 -30 4 0 7 14 7 30 0 17 -3 30 -7 30 -5 0
-8 -13 -8 -30z"/>
<path d="M2388 603 c6 -2 12 -16 12 -29 0 -13 5 -24 10 -24 6 0 10 11 10 24 0
13 6 27 13 29 6 3 -4 5 -23 5 -19 0 -29 -2 -22 -5z"/>
<path d="M2503 580 c0 -16 4 -30 9 -30 4 0 8 7 8 15 0 8 5 15 10 15 6 0 10 -7
10 -15 0 -8 4 -15 8 -15 5 0 9 14 9 30 0 31 -11 40 -21 18 -5 -10 -7 -10 -12
0 -10 22 -21 13 -21 -18z"/>
<path d="M2710 593 c0 -27 16 -47 33 -40 16 6 30 57 16 57 -5 0 -9 -11 -9 -25
0 -14 -4 -25 -10 -25 -5 0 -10 11 -10 25 0 14 -4 25 -10 25 -5 0 -10 -8 -10
-17z"/>
<path d="M2836 602 c-4 -7 -1 -15 8 -18 22 -8 20 -25 -1 -17 -14 5 -16 3 -6
-7 19 -21 41 -5 35 25 -3 17 -7 22 -12 15 -6 -9 -9 -9 -12 1 -3 10 -6 10 -12
1z"/>
</g>
</svg>
